{"title":"iZombie.S01.720p.BluRay.X264-REWARD","uid":15580431,"size":30520359949,"categoryP":"video","categoryS":"hd___tv_shows","magnet":"?xt=urn:btih:ee2d643ea793bffef3cefc63855b71dde3d4a4ad&amp;dn=iZombie.S01.720p.BluRay.X264-REWARD&amp;tr=udp%3A%2F%2Ftracker.leechers-paradise.org%3A6969&amp;tr=udp%3A%2F%2Fzer0day.ch%3A1337&amp;tr=udp%3A%2F%2Fopen.demonii.com%3A1337&amp;tr=udp%3A%2F%2Ftracker.coppersurfer.tk%3A6969&amp;tr=udp%3A%2F%2Fexodus.desync.com%3A6969","seeders":0,"leechers":1,"uploader":"GoodFilms","files":39,"time":1471397879,"description":"http://www.imdb.com/title/tt3501584/\r\n\r\nVideo\r\nID                                       : 1\r\nFormat                                   : AVC\r\nFormat/Info                              : Advanced Video Codec\r\nFormat profile                           :   \r\nFormat settings, CABAC                   : Yes\r\nFormat settings, ReFrames                : 5 frames\r\nCodec ID                                 : V_MPEG4/ISO/AVC\r\nDuration                                 : 41mn 35s\r\nBit rate                                 : 6 005 Kbps\r\nWidth                                    : 1 280 pixels\r\nHeight                                   : 720 pixels\r\nDisplay aspect ratio                     : 16:9\r\nFrame rate mode                          : Constant\r\nFrame rate                               : 23.976 (24000/1001) fps\r\nColor space                              : YUV\r\nChroma subsampling                       : 4:2:0\r\nBit depth                                : 8 bits\r\nScan type                                : Progressive\r\nBits/(Pixel*Frame)                       : 0.272\r\nStream size                              : 1.70 GiB (78%)\r\nWriting library                          : x264 core 148 r2705 3f5ed56\r\nDefault                                  : Yes\r\nForced                                   : No\r\nStatistics Tags Issue                    : no_variable_data 1970-01-01 00:00:00 / no_variable_data 2010-02-22 21:41:29\r\nFromStats_BitRate                        : 6005414\r\nFromStats_Duration                       : 00:41:35.368000000\r\nFromStats_FrameCount                     : 59829\r\nFromStats_StreamSize                     : 1873214935\r\n\r\nAudio\r\nID                                       : 2\r\nFormat                                   : DTS\r\nFormat/Info                              : Digital Theater Systems\r\nMode                                     : 16\r\nFormat settings, Endianness              : Big\r\nCodec ID                                 : A_DTS\r\nDuration                                 : 41mn 35s\r\nBit rate mode                            : Constant\r\nBit rate                                 : 1 509 Kbps\r\nChannel(s)                               : 6 channels\r\nChannel positions                        : Front: L C R, Side: L R, LFE\r\nSampling rate                            : 48.0 KHz\r\nFrame rate                               : 93.750 fps (512 spf)\r\nBit depth                                : 24 bits\r\nCompression mode                         : Lossy\r\nStream size                              : 449 MiB (20%)\r\nLanguage                                 : English\r\nDefault                                  : Yes\r\nForced                                   : No\r\nStatistics Tags Issue                    : no_variable_data 1970-01-01 00:00:00 / no_variable_data 2010-02-22 21:41:29\r\nFromStats_BitRate                        : 1509000\r\nFromStats_Duration                       : 00:41:35.392000000\r\nFromStats_FrameCount                     : 233943\r\nFromStats_StreamSize                     : 470693316\r\n\r\nText #1\r\nID                                       : 3\r\nFormat                                   : UTF-8\r\nCodec ID                                 : S_TEXT/UTF8\r\nCodec ID/Info                            : UTF-8 Plain Text\r\nLanguage                                 : English\r\nDefault                                  : No\r\nForced                                   : No\r\nStatistics Tags Issue                    : no_variable_data 1970-01-01 00:00:00 / no_variable_data 2010-02-22 21:41:29\r\nFromStats_BitRate                        : 101\r\nFromStats_Duration                       : 00:40:53.410000000\r\nFromStats_FrameCount                     : 789\r\nFromStats_StreamSize                     : 31240\r\n\r\nText #2\r\nID                                       : 4\r\nFormat                                   : UTF-8\r\nCodec ID                                 : S_TEXT/UTF8\r\nCodec ID/Info                            : UTF-8 Plain Text\r\nTitle                                    : SDH\r\nLanguage                                 : English\r\nDefault                                  : No\r\nForced                                   : No\r\nStatistics Tags Issue                    : no_variable_data 1970-01-01 00:00:00 / no_variable_data 2010-02-22 21:41:29\r\nFromStats_BitRate                        : 103\r\nFromStats_Duration                       : 00:41:03.211000000\r\nFromStats_FrameCount                     : 821\r\nFromStats_StreamSize                     : 31984\r\n\r\nMenu\r\n00:00:00.000                             : en:00:00:00.000\r\n00:04:17.674                             : en:00:04:17.674\r\n00:09:01.207                             : en:00:09:01.207\r\n00:16:54.263                             : en:00:16:54.263\r\n00:21:30.623                             : en:00:21:30.623\r\n00:29:34.106                             : en:00:29:34.106\r\n00:34:03.917                             : en:00:34:03.917\r\n00:41:07.090                             : en:00:41:07.090","torrent":{"xt":"urn:btih:ee2d643ea793bffef3cefc63855b71dde3d4a4ad","amp;dn":"iZombie.S01.720p.BluRay.X264-REWARD","amp;tr":["udp%3A%2F%2Ftracker.leechers-paradise.org%3A6969","udp%3A%2F%2Fzer0day.ch%3A1337","udp%3A%2F%2Fopen.demonii.com%3A1337","udp%3A%2F%2Ftracker.coppersurfer.tk%3A6969","udp%3A%2F%2Fexodus.desync.com%3A6969"],"infoHash":"ee2d643ea793bffef3cefc63855b71dde3d4a4ad","infoHashBuffer":{"type":"Buffer","data":[238,45,100,62,167,147,191,254,243,206,252,99,133,91,113,221,227,212,164,173]},"announce":[],"urlList":[]}}